<svg width="310" height="29" viewBox="0 0 310 29" fill="none" xmlns="http://www.w3.org/2000/svg">
<path d="M204.846 21.3672V0H218.429V1.58727L218.185 1.83147C217.188 1.44499 215.509 1.25151 213.148 1.25151H207.562V9.8289H216.506L216.689 10.0426V11.1109H207.562V20.1157H213.454C214.512 20.1157 215.458 20.0748 216.292 19.9936C217.127 19.8917 217.697 19.7902 218.002 19.6883L218.49 19.5357L218.734 19.7799V21.3672H204.846Z" fill="white"/>
<path d="M223.559 21.3671V12.2097C223.559 11.1517 223.529 10.2054 223.468 9.37092C223.407 8.53643 223.335 7.95646 223.254 7.63103L223.163 7.17316L223.437 6.89844H230.244C231.832 6.89844 233.063 7.24454 233.938 7.93627C234.813 8.60781 235.25 9.50335 235.25 10.6224C235.25 12.2506 234.406 13.3593 232.717 13.9496C233.795 14.1736 234.629 14.6108 235.22 15.2622C235.83 15.8928 236.136 16.6663 236.136 17.582C236.136 18.7218 235.678 19.6375 234.762 20.3292C233.846 21.021 232.564 21.3671 230.916 21.3671H223.559ZM230.397 14.6822H226.185V20.085H230.397C231.333 20.085 232.076 19.8408 232.625 19.3524C233.175 18.8641 233.449 18.2127 233.449 17.3989C233.449 16.5644 233.175 15.9032 232.625 15.4148C232.076 14.9264 231.333 14.6822 230.397 14.6822ZM229.817 8.18047H226.185V13.4002H229.817C230.733 13.4002 231.445 13.1663 231.954 12.6981C232.483 12.2299 232.747 11.5992 232.747 10.8056C232.747 10.0119 232.483 9.38126 231.954 8.91306C231.445 8.42466 230.733 8.18047 229.817 8.18047Z" fill="white"/>
<path d="M243.228 29.0002H240.603V15.3557C240.603 13.6464 240.563 12.1098 240.481 10.7465C240.4 9.38326 240.318 8.44687 240.237 7.93828L240.084 7.17517L240.359 6.90045C240.827 6.90045 241.274 6.88025 241.702 6.8394C242.15 6.79854 242.475 6.75816 242.679 6.7173L242.953 6.65625L243.228 6.90045L243.106 8.39615L243.228 8.51825C243.371 8.37596 243.564 8.20267 243.808 7.99933C244.073 7.79599 244.632 7.53113 245.487 7.20569C246.342 6.85959 247.237 6.68678 248.173 6.68678C250.086 6.68678 251.643 7.33812 252.843 8.64034C254.044 9.94257 254.644 11.7233 254.644 13.9821C254.644 16.3222 253.983 18.1842 252.66 19.5681C251.358 20.9314 249.577 21.6133 247.318 21.6133C245.65 21.6133 244.287 21.2573 243.228 20.5449V29.0002ZM251.744 14.3484C251.744 12.3747 251.307 10.8686 250.432 9.8308C249.557 8.79297 248.407 8.27405 246.983 8.27405C246.311 8.27405 245.66 8.38582 245.029 8.60982C244.418 8.83383 243.961 9.05736 243.655 9.28136L243.228 9.61713V17.7672C243.228 18.6017 243.584 19.2732 244.296 19.7818C245.029 20.2702 245.925 20.5144 246.983 20.5144C248.448 20.5144 249.608 19.9753 250.462 18.8966C251.317 17.8179 251.744 16.302 251.744 14.3484Z" fill="white"/>
<path d="M260.101 19.5344C258.717 18.1505 258.025 16.3495 258.025 14.1316C258.025 11.9136 258.717 10.1225 260.101 8.75926C261.505 7.37533 263.326 6.68359 265.565 6.68359C267.824 6.68359 269.645 7.37533 271.029 8.75926C272.433 10.1225 273.135 11.9136 273.135 14.1316C273.135 16.3702 272.433 18.181 271.029 19.5649C269.645 20.9282 267.824 21.6101 265.565 21.6101C263.326 21.6101 261.505 20.9184 260.101 19.5344ZM260.925 14.1316C260.925 16.126 261.342 17.6926 262.177 18.8324C263.031 19.9721 264.161 20.5417 265.565 20.5417C266.969 20.5417 268.098 19.9721 268.953 18.8324C269.808 17.6926 270.235 16.126 270.235 14.1316C270.235 12.1578 269.808 10.6011 268.953 9.46133C268.098 8.30139 266.969 7.72143 265.565 7.72143C264.181 7.72143 263.062 8.30139 262.207 9.46133C261.353 10.6011 260.925 12.1578 260.925 14.1316Z" fill="white"/>
<path d="M288.093 21.3671V8.18047H280.31V21.3671H277.684V12.2097C277.684 11.1517 277.654 10.2054 277.593 9.37092C277.532 8.53643 277.461 7.95646 277.379 7.63103L277.288 7.17316L277.562 6.89844H290.718V21.3671H288.093Z" fill="white"/>
<path d="M302.003 6.67969C305.645 6.67969 307.467 8.08382 307.467 10.8921V18.859C307.467 19.7545 307.853 20.2021 308.627 20.2021C308.789 20.2021 308.942 20.1819 309.084 20.141C309.247 20.1001 309.359 20.0598 309.42 20.0189L309.512 19.9579L310 20.4768C309.939 20.558 309.848 20.6599 309.725 20.782C309.603 20.9041 309.308 21.0769 308.84 21.3009C308.372 21.5043 307.853 21.6062 307.283 21.6062C305.838 21.6062 305.034 20.9854 304.872 19.7442C303.346 20.9854 301.596 21.6062 299.622 21.6062C298.258 21.6062 297.231 21.2704 296.539 20.5989C295.847 19.9273 295.501 19.0013 295.501 17.8211C295.501 16.7021 295.971 15.9216 296.691 15.2266C297.431 14.5137 298.729 13.8999 300.086 13.4256C300.878 13.1485 302.654 12.8024 303.797 12.5944C304.403 12.4761 304.84 11.9454 304.84 11.3279C304.841 10.8803 304.841 10.4647 304.841 10.4647C304.841 8.63326 303.865 7.71752 301.911 7.71752C300.873 7.71752 299.923 8.28669 299.293 8.81547C298.682 9.34471 297.997 10.3426 297.997 10.3426H297.753C297.753 10.3426 297.368 10.12 297.066 9.7251C296.789 9.36209 296.699 9.03712 296.654 8.45011C297.028 8.07677 297.154 7.99835 297.545 7.71752C298.583 6.98493 300.13 6.67969 302.003 6.67969ZM298.218 17.5159C298.218 19.2051 299.133 20.0494 300.965 20.0494C301.616 20.0494 302.267 19.9377 302.918 19.7137C303.569 19.4695 304.058 19.2253 304.384 18.9811L304.841 18.6453V13.5097C304.841 13.5097 302 14.1014 301.018 14.494C300.223 14.8124 299.387 15.3688 298.92 15.776C298.452 16.1831 298.218 16.7631 298.218 17.5159Z" fill="white"/>
<path d="M15.2589 21.3672V11.3856H5.5521V21.3672H0.820801V0H5.5521V9.46261H15.2589V0H19.9902V21.3672H15.2589Z" fill="white"/>
<path d="M25.6416 19.5684C24.1764 18.1643 23.4438 16.3328 23.4438 14.074C23.4438 11.8152 24.1764 9.99404 25.6416 8.6101C27.1068 7.20597 29.0195 6.50391 31.3802 6.50391C33.7405 6.50391 35.6433 7.20597 37.0883 8.6101C38.5535 9.99404 39.2861 11.8152 39.2861 14.074C39.2861 16.3328 38.5535 18.1643 37.0883 19.5684C35.6231 20.9725 33.7203 21.6746 31.3802 21.6746C29.0195 21.6746 27.1068 20.9725 25.6416 19.5684ZM28.4804 14.074C28.4804 16.0478 28.7448 17.5641 29.274 18.6221C29.8028 19.6802 30.5049 20.2094 31.3802 20.2094C32.2551 20.2094 32.9468 19.6802 33.4559 18.6221C33.9847 17.5641 34.2495 16.0478 34.2495 14.074C34.2495 12.1204 33.9847 10.6144 33.4559 9.55636C32.9468 8.49833 32.2551 7.96908 31.3802 7.96908C30.5049 7.96908 29.8028 8.49833 29.274 9.55636C28.7448 10.6144 28.4804 12.1204 28.4804 14.074Z" fill="white"/>
<path d="M42.5526 21.3727V12.2153C42.5526 11.1977 42.5019 10.2721 42.4 9.43761C42.2986 8.58292 42.207 7.99263 42.1253 7.66719L41.9727 7.17879L42.339 6.8125H49.8175C51.71 6.8125 53.155 7.1586 54.1519 7.85033C55.1494 8.54207 55.6476 9.46813 55.6476 10.6281C55.6476 12.1951 54.7728 13.3039 53.0225 13.9552C55.3631 14.4638 56.5329 15.6543 56.5329 17.5266C56.5329 18.7067 56.0139 19.6431 54.9761 20.3349C53.9589 21.0266 52.4426 21.3727 50.428 21.3727H42.5526ZM49.4512 14.9931H47.0702V19.4497H49.4512C50.2246 19.4497 50.8248 19.2562 51.2521 18.8697C51.7001 18.4832 51.9237 17.9338 51.9237 17.2214C51.9237 16.509 51.7001 15.9595 51.2521 15.573C50.8248 15.1866 50.2246 14.9931 49.4512 14.9931ZM48.9323 8.73555H47.0702V13.1006H48.9323C49.7057 13.1006 50.3059 12.9174 50.7332 12.5511C51.1605 12.1646 51.3742 11.625 51.3742 10.9333C51.3742 10.2416 51.1605 9.702 50.7332 9.31551C50.3059 8.92902 49.7057 8.73555 48.9323 8.73555Z" fill="white"/>
<path d="M75.6128 21.3688V20.8804C76.8544 19.5984 78.1872 17.7669 79.6115 15.386L79.7641 15.1113C78.6652 14.7858 77.8105 14.2768 77.2001 13.585C76.5896 12.8726 76.2843 12.0485 76.2843 11.1126C76.2843 9.83052 76.8544 8.79269 77.9937 7.99905C79.1334 7.20541 80.6291 6.80859 82.4808 6.80859H89.7457V21.3688H85.228V15.447H83.5492L80.0388 21.6435C78.8587 21.4604 77.3832 21.3688 75.6128 21.3688ZM83.3355 13.524H85.228V8.73164H83.3355C82.5827 8.73164 81.9722 8.93498 81.504 9.34213C81.0363 9.74928 80.802 10.3391 80.802 11.1126C80.802 11.886 81.0363 12.4862 81.504 12.9135C81.9722 13.3206 82.5827 13.524 83.3355 13.524Z" fill="white"/>
<path d="M107.18 8.61345H105.409V21.3727H100.891V12.2153C100.891 11.1977 100.841 10.2721 100.739 9.43761C100.637 8.58292 100.545 7.99263 100.464 7.66719L100.312 7.17879L100.678 6.8125H111.819V9.16289L111.453 9.52918C110.578 8.91869 109.153 8.61345 107.18 8.61345Z" fill="white"/>
<path d="M136.353 19.8737C137.208 19.8737 137.9 19.6398 138.429 19.1716C138.958 18.7034 139.223 18.0624 139.223 17.2485C139.223 16.516 138.999 15.9463 138.551 15.5392C138.124 15.1118 137.524 14.8982 136.75 14.8982H134.461L134.217 14.6234V13.0362H136.262C137.951 13.0362 138.795 12.273 138.795 10.7468C138.795 9.95318 138.562 9.31216 138.093 8.82377C137.646 8.33538 137.046 8.09118 136.292 8.09118C135.601 8.09118 134.96 8.35557 134.369 8.88482C133.8 9.41407 133.393 9.94285 133.148 10.4721L132.782 11.2657H132.416C132.294 11.1845 132.131 11.0723 131.927 10.93C131.724 10.767 131.46 10.4214 131.134 9.89213C130.808 9.36288 130.645 8.80358 130.645 8.21328C130.767 8.09118 130.961 7.93856 131.225 7.75541C131.49 7.55207 132.121 7.29754 133.118 6.9923C134.115 6.66686 135.224 6.50391 136.445 6.50391C138.5 6.50391 140.118 6.88053 141.298 7.63331C142.499 8.3861 143.099 9.37321 143.099 10.5942C143.099 12.1406 142.194 13.2296 140.383 13.8603C141.522 14.1045 142.387 14.5624 142.977 15.2339C143.568 15.8853 143.862 16.6381 143.862 17.4927C143.862 18.7546 143.221 19.7717 141.939 20.5452C140.678 21.298 138.938 21.6746 136.72 21.6746C135.336 21.6746 134.115 21.522 133.057 21.2167C132.019 20.9115 131.317 20.6062 130.951 20.301L130.432 19.8431C130.432 19.2735 130.574 18.7442 130.859 18.2559C131.144 17.7473 131.439 17.381 131.744 17.157L132.172 16.8517H132.538C132.559 16.933 132.599 17.0452 132.66 17.1875C132.721 17.3096 132.864 17.5538 133.087 17.9201C133.311 18.2662 133.555 18.5714 133.82 18.8358C134.085 19.1002 134.441 19.3444 134.888 19.5684C135.356 19.7717 135.845 19.8737 136.353 19.8737Z" fill="white"/>
<path d="M159.647 17.9811L160.349 18.6832C160.308 18.7644 160.237 18.8767 160.135 19.019C160.034 19.1411 159.799 19.3749 159.433 19.721C159.087 20.0671 158.691 20.3724 158.243 20.6368C157.795 20.9012 157.184 21.1454 156.411 21.3694C155.638 21.5727 154.814 21.6746 153.939 21.6746C151.537 21.6746 149.614 20.9829 148.169 19.5989C146.745 18.1948 146.033 16.3431 146.033 14.0435C146.033 11.7236 146.765 9.89213 148.23 8.54905C149.696 7.18578 151.751 6.50391 154.396 6.50391C158.405 6.50391 160.41 8.09118 160.41 11.2657C160.41 11.6522 160.379 12.0392 160.318 12.4257C160.278 12.792 160.227 13.0667 160.166 13.2498L160.074 13.5551L159.708 13.9214H151.069C151.13 15.8139 151.527 17.1875 152.26 18.0422C153.013 18.8969 154.102 19.3242 155.526 19.3242C156.299 19.3242 157.022 19.2124 157.693 18.9884C158.385 18.7644 158.884 18.5409 159.189 18.3169L159.647 17.9811ZM154.274 7.96908C153.379 7.96908 152.647 8.34571 152.077 9.09849C151.527 9.85127 151.202 10.9605 151.1 12.4257L156.197 12.1204C156.299 11.6522 156.35 11.154 156.35 10.6247C156.35 8.8543 155.658 7.96908 154.274 7.96908Z" fill="white"/>
<path d="M176.699 9.16289L176.333 9.52918C175.458 8.91869 174.033 8.61345 172.06 8.61345H171.449V21.3727H166.932V8.61345H166.352C165.477 8.61345 164.683 8.69469 163.971 8.85764C163.258 8.99993 162.77 9.14269 162.506 9.28499L162.078 9.52918L161.712 9.16289V6.8125H176.699V9.16289Z" fill="white"/>
<path d="M185.641 6.50391C189.853 6.50391 191.96 7.94889 191.96 10.8384V18.2864C191.96 19.1411 192.306 19.5684 192.997 19.5684C193.14 19.5684 193.272 19.5482 193.394 19.5074C193.516 19.4665 193.598 19.436 193.638 19.4158L193.73 19.3547L194.432 20.0568C194.331 20.1789 194.188 20.3315 194.005 20.5147C193.822 20.6978 193.394 20.942 192.723 21.2473C192.051 21.5323 191.319 21.6746 190.525 21.6746C188.856 21.6746 187.859 21.0641 187.534 19.8431C186.129 21.0641 184.461 21.6746 182.528 21.6746C181.205 21.6746 180.198 21.3388 179.506 20.6673C178.814 19.9958 178.468 19.0392 178.468 17.798C178.468 16.5972 178.961 15.7528 179.78 15.0508C181.67 13.4302 183.065 13.2141 184.523 12.9056C185.054 12.7934 185.817 12.5125 186.429 12.2674C187.036 12.0401 187.438 11.4597 187.438 10.8116C187.442 10.3829 187.442 9.9837 187.442 9.9837C187.442 8.64062 186.791 7.96908 185.488 7.96908C184.776 7.96908 184.251 8.21046 183.81 8.57957C183.339 8.97217 182.822 9.53617 182.497 9.9837C182.217 10.3697 181.859 11.2657 181.859 11.2657H181.493C181.493 11.2657 181.162 11.084 181.033 10.9502C180.697 10.6012 180.062 9.75782 179.87 9.15954C179.743 8.76366 179.723 8.21328 179.723 8.21328C179.723 8.21328 179.974 7.96862 180.26 7.785C181.381 7.06321 183.565 6.50391 185.641 6.50391ZM183.138 17.218C183.138 18.5611 183.789 19.2326 185.092 19.2326C185.499 19.2326 185.896 19.1613 186.282 19.019C186.689 18.8767 186.984 18.7442 187.167 18.6221L187.442 18.4085V13.4283C187.442 13.4283 185.727 14.2168 185.092 14.6093C184.571 14.931 183.973 15.4373 183.626 15.7834C183.301 16.1088 183.138 16.5873 183.138 17.218Z" fill="white"/>
<path d="M65.6996 6.50391C69.912 6.50391 72.0182 7.94889 72.0182 10.8384V18.2864C72.0182 19.1411 72.3643 19.5684 73.056 19.5684C73.1988 19.5684 73.3308 19.5482 73.4529 19.5074C73.575 19.4665 73.6567 19.436 73.6971 19.4158L73.7886 19.3547L74.4907 20.0568C74.3893 20.1789 74.2465 20.3315 74.0633 20.5147C73.8802 20.6978 73.4529 20.942 72.7813 21.2473C72.1098 21.5323 71.3772 21.6746 70.5836 21.6746C68.915 21.6746 67.9181 21.0641 67.5922 19.8431C66.188 21.0641 64.5195 21.6746 62.5861 21.6746C61.2637 21.6746 60.2564 21.3388 59.5642 20.6673C58.8725 19.9958 58.5264 19.0392 58.5264 17.798C58.5264 16.5972 59.0199 15.7528 59.8389 15.0508C61.7291 13.4302 63.1238 13.2141 64.5819 12.9056C65.1131 12.7934 65.8752 12.5125 66.4871 12.2674C67.0944 12.0401 67.4963 11.4597 67.4963 10.8116C67.5006 10.3829 67.5006 9.9837 67.5006 9.9837C67.5006 8.64062 66.8497 7.96908 65.547 7.96908C64.8351 7.96908 64.3101 8.21046 63.8682 8.57957C63.3976 8.97217 62.8806 9.53617 62.5556 9.9837C62.2752 10.3697 61.9179 11.2657 61.9179 11.2657H61.5516C61.5516 11.2657 61.221 11.084 61.0918 10.9502C60.7551 10.6012 60.1207 9.75782 59.9291 9.15954C59.8018 8.76366 59.7812 8.21328 59.7812 8.21328C59.7812 8.21328 60.0328 7.96862 60.3188 7.785C61.4398 7.06321 63.6239 6.50391 65.6996 6.50391ZM63.1966 17.218C63.1966 18.5611 63.848 19.2326 65.1502 19.2326C65.5573 19.2326 65.9541 19.1613 66.3406 19.019C66.7478 18.8767 67.0427 18.7442 67.2258 18.6221L67.5006 18.4085V13.4283C67.5006 13.4283 65.786 14.2168 65.1502 14.6093C64.6294 14.931 64.0311 15.4373 63.685 15.7834C63.3596 16.1088 63.1966 16.5873 63.1966 17.218Z" fill="white"/>
<path d="M120.742 6.50391C124.954 6.50391 127.06 7.94889 127.06 10.8384V18.2864C127.06 19.1411 127.406 19.5684 128.098 19.5684C128.241 19.5684 128.373 19.5482 128.495 19.5074C128.617 19.4665 128.699 19.436 128.739 19.4158L128.831 19.3547L129.533 20.0568C129.431 20.1789 129.288 20.3315 129.105 20.5147C128.922 20.6978 128.495 20.942 127.823 21.2473C127.152 21.5323 126.419 21.6746 125.626 21.6746C123.957 21.6746 122.96 21.0641 122.634 19.8431C121.23 21.0641 119.561 21.6746 117.628 21.6746C116.306 21.6746 115.298 21.3388 114.606 20.6673C113.914 19.9958 113.568 19.0392 113.568 17.798C113.568 16.5972 114.062 15.7528 114.881 15.0508C116.771 13.4302 118.166 13.2141 119.624 12.9056C120.155 12.7934 120.917 12.5125 121.529 12.2674C122.136 12.0401 122.538 11.4597 122.538 10.8116C122.543 10.3829 122.543 9.9837 122.543 9.9837C122.543 8.64062 121.892 7.96908 120.589 7.96908C119.877 7.96908 119.352 8.21046 118.91 8.57957C118.44 8.97217 117.923 9.53617 117.598 9.9837C117.317 10.3697 116.96 11.2657 116.96 11.2657H116.594C116.594 11.2657 116.263 11.084 116.134 10.9502C115.797 10.6012 115.163 9.75782 114.971 9.15954C114.844 8.76366 114.823 8.21328 114.823 8.21328C114.823 8.21328 115.075 7.96862 115.361 7.785C116.482 7.06321 118.666 6.50391 120.742 6.50391ZM118.239 17.218C118.239 18.5611 118.89 19.2326 120.192 19.2326C120.599 19.2326 120.996 19.1613 121.383 19.019C121.79 18.8767 122.085 18.7442 122.268 18.6221L122.543 18.4085V13.4283C122.543 13.4283 120.828 14.2168 120.192 14.6093C119.671 14.931 119.073 15.4373 118.727 15.7834C118.402 16.1088 118.239 16.5873 118.239 17.218Z" fill="white"/>
</svg>
