<svg width="310" height="29" viewBox="0 0 310 29" fill="none" xmlns="http://www.w3.org/2000/svg">
<path d="M204.846 21.3672V0H218.429V1.58727L218.185 1.83147C217.188 1.44499 215.509 1.25151 213.148 1.25151H207.562V9.8289H216.506L216.689 10.0426V11.1109H207.562V20.1157H213.454C214.512 20.1157 215.458 20.0748 216.292 19.9936C217.127 19.8917 217.697 19.7902 218.002 19.6883L218.49 19.5357L218.734 19.7799V21.3672H204.846Z" fill="#8C909B"/>
<path d="M223.56 21.3671V12.2097C223.56 11.1517 223.529 10.2054 223.468 9.37092C223.407 8.53643 223.336 7.95646 223.255 7.63102L223.163 7.17316L223.438 6.89844H230.245C231.832 6.89844 233.063 7.24454 233.938 7.93627C234.813 8.60781 235.251 9.50335 235.251 10.6224C235.251 12.2506 234.406 13.3593 232.717 13.9496C233.796 14.1736 234.63 14.6108 235.22 15.2622C235.831 15.8928 236.136 16.6663 236.136 17.582C236.136 18.7218 235.678 19.6375 234.762 20.3292C233.847 21.021 232.565 21.3671 230.916 21.3671H223.56ZM230.397 14.6822H226.185V20.085H230.397C231.333 20.085 232.076 19.8408 232.626 19.3524C233.175 18.8641 233.45 18.2127 233.45 17.3989C233.45 16.5644 233.175 15.9032 232.626 15.4148C232.076 14.9264 231.333 14.6822 230.397 14.6822ZM229.817 8.18047H226.185V13.4002H229.817C230.733 13.4002 231.446 13.1663 231.954 12.6981C232.483 12.2299 232.748 11.5992 232.748 10.8056C232.748 10.0119 232.483 9.38126 231.954 8.91306C231.446 8.42466 230.733 8.18047 229.817 8.18047Z" fill="#8C909B"/>
<path d="M243.228 29.0002H240.603V15.3557C240.603 13.6464 240.563 12.1098 240.481 10.7465C240.4 9.38326 240.318 8.44687 240.237 7.93828L240.084 7.17517L240.359 6.90045C240.827 6.90045 241.274 6.88025 241.702 6.8394C242.15 6.79854 242.475 6.75816 242.679 6.7173L242.953 6.65625L243.228 6.90045L243.106 8.39615L243.228 8.51825C243.371 8.37596 243.564 8.20267 243.808 7.99933C244.073 7.79599 244.632 7.53113 245.487 7.20569C246.342 6.85959 247.237 6.68678 248.173 6.68678C250.086 6.68678 251.643 7.33812 252.843 8.64034C254.044 9.94257 254.644 11.7233 254.644 13.9821C254.644 16.3222 253.983 18.1842 252.66 19.5681C251.358 20.9314 249.577 21.6133 247.318 21.6133C245.65 21.6133 244.287 21.2573 243.228 20.5449V29.0002ZM251.744 14.3484C251.744 12.3747 251.307 10.8686 250.432 9.8308C249.557 8.79297 248.407 8.27405 246.983 8.27405C246.311 8.27405 245.66 8.38582 245.029 8.60982C244.418 8.83383 243.961 9.05736 243.655 9.28136L243.228 9.61713V17.7672C243.228 18.6017 243.584 19.2732 244.296 19.7818C245.029 20.2702 245.925 20.5144 246.983 20.5144C248.448 20.5144 249.608 19.9753 250.462 18.8966C251.317 17.8179 251.744 16.302 251.744 14.3484Z" fill="#8C909B"/>
<path d="M260.101 19.5344C258.717 18.1505 258.025 16.3495 258.025 14.1316C258.025 11.9136 258.717 10.1225 260.101 8.75926C261.505 7.37533 263.326 6.68359 265.565 6.68359C267.824 6.68359 269.645 7.37533 271.029 8.75926C272.433 10.1225 273.135 11.9136 273.135 14.1316C273.135 16.3702 272.433 18.181 271.029 19.5649C269.645 20.9282 267.824 21.6101 265.565 21.6101C263.326 21.6101 261.505 20.9184 260.101 19.5344ZM260.925 14.1316C260.925 16.126 261.342 17.6926 262.177 18.8324C263.031 19.9721 264.161 20.5417 265.565 20.5417C266.969 20.5417 268.098 19.9721 268.953 18.8324C269.808 17.6926 270.235 16.126 270.235 14.1316C270.235 12.1578 269.808 10.6011 268.953 9.46133C268.098 8.30139 266.969 7.72143 265.565 7.72143C264.181 7.72143 263.062 8.30139 262.207 9.46133C261.353 10.6011 260.925 12.1578 260.925 14.1316Z" fill="#8C909B"/>
<path d="M288.093 21.3671V8.18047H280.309V21.3671H277.684V12.2097C277.684 11.1517 277.653 10.2054 277.592 9.37092C277.531 8.53643 277.46 7.95646 277.379 7.63102L277.287 7.17316L277.562 6.89844H290.718V21.3671H288.093Z" fill="#8C909B"/>
<path d="M302.003 6.67969C305.645 6.67969 307.467 8.08382 307.467 10.8921V18.859C307.467 19.7545 307.853 20.2021 308.627 20.2021C308.789 20.2021 308.942 20.1819 309.084 20.141C309.247 20.1001 309.359 20.0598 309.42 20.0189L309.512 19.9579L310 20.4768C309.939 20.558 309.848 20.6599 309.725 20.782C309.603 20.9041 309.308 21.0769 308.84 21.3009C308.372 21.5043 307.853 21.6062 307.283 21.6062C305.838 21.6062 305.034 20.9854 304.872 19.7442C303.346 20.9854 301.596 21.6062 299.622 21.6062C298.258 21.6062 297.231 21.2704 296.539 20.5989C295.847 19.9273 295.501 19.0013 295.501 17.8211C295.501 16.7021 295.971 15.9216 296.691 15.2266C297.431 14.5137 298.729 13.8999 300.086 13.4256C300.878 13.1485 302.654 12.8024 303.797 12.5944C304.403 12.4761 304.84 11.9454 304.84 11.3279C304.841 10.8803 304.841 10.4647 304.841 10.4647C304.841 8.63326 303.865 7.71752 301.911 7.71752C300.873 7.71752 299.923 8.28669 299.293 8.81547C298.682 9.34471 297.997 10.3426 297.997 10.3426H297.753C297.753 10.3426 297.368 10.12 297.066 9.7251C296.789 9.36209 296.699 9.03712 296.654 8.45011C297.028 8.07677 297.154 7.99835 297.545 7.71752C298.583 6.98493 300.13 6.67969 302.003 6.67969ZM298.218 17.5159C298.218 19.2051 299.133 20.0494 300.965 20.0494C301.616 20.0494 302.267 19.9377 302.918 19.7137C303.569 19.4695 304.058 19.2253 304.384 18.9811L304.841 18.6453V13.5097C304.841 13.5097 302 14.1014 301.018 14.494C300.223 14.8124 299.387 15.3688 298.92 15.776C298.452 16.1831 298.218 16.7631 298.218 17.5159Z" fill="#8C909B"/>
<path d="M15.2594 21.3672V11.3857H5.55259V21.3672H0.821289V0H5.55259V9.46261H15.2594V0H19.9907V21.3672H15.2594Z" fill="#8C909B"/>
<path d="M25.6421 19.5684C24.1769 18.1643 23.4443 16.3328 23.4443 14.074C23.4443 11.8152 24.1769 9.99404 25.6421 8.6101C27.1073 7.20597 29.02 6.50391 31.3807 6.50391C33.741 6.50391 35.6438 7.20597 37.0888 8.6101C38.554 9.99404 39.2866 11.8152 39.2866 14.074C39.2866 16.3328 38.554 18.1643 37.0888 19.5684C35.6236 20.9725 33.7208 21.6746 31.3807 21.6746C29.02 21.6746 27.1073 20.9725 25.6421 19.5684ZM28.4809 14.074C28.4809 16.0478 28.7453 17.5641 29.2745 18.6221C29.8033 19.6802 30.5054 20.2094 31.3807 20.2094C32.2556 20.2094 32.9473 19.6802 33.4564 18.6221C33.9852 17.5641 34.25 16.0478 34.25 14.074C34.25 12.1204 33.9852 10.6144 33.4564 9.55636C32.9473 8.49833 32.2556 7.96908 31.3807 7.96908C30.5054 7.96908 29.8033 8.49833 29.2745 9.55636C28.7453 10.6144 28.4809 12.1204 28.4809 14.074Z" fill="#8C909B"/>
<path d="M42.5536 21.3727V12.2153C42.5536 11.1977 42.5029 10.2721 42.401 9.43761C42.2995 8.58292 42.208 7.99263 42.1262 7.66719L41.9736 7.17879L42.3399 6.8125H49.8184C51.711 6.8125 53.1559 7.1586 54.1529 7.85033C55.1504 8.54207 55.6486 9.46813 55.6486 10.6281C55.6486 12.1951 54.7737 13.3039 53.0235 13.9552C55.364 14.4638 56.5338 15.6543 56.5338 17.5266C56.5338 18.7067 56.0149 19.6431 54.9771 20.3349C53.9599 21.0266 52.4435 21.3727 50.4289 21.3727H42.5536ZM49.4521 14.9931H47.0712V19.4497H49.4521C50.2256 19.4497 50.8257 19.2562 51.2531 18.8697C51.7011 18.4832 51.9246 17.9338 51.9246 17.2214C51.9246 16.509 51.7011 15.9595 51.2531 15.573C50.8257 15.1866 50.2256 14.9931 49.4521 14.9931ZM48.9332 8.73555H47.0712V13.1006H48.9332C49.7067 13.1006 50.3068 12.9174 50.7342 12.5511C51.1615 12.1646 51.3752 11.625 51.3752 10.9333C51.3752 10.2416 51.1615 9.702 50.7342 9.31551C50.3068 8.92902 49.7067 8.73555 48.9332 8.73555Z" fill="#8C909B"/>
<path d="M75.6133 21.3688V20.8804C76.8549 19.5984 78.1877 17.7669 79.612 15.386L79.7646 15.1113C78.6657 14.7858 77.811 14.2768 77.2005 13.585C76.5901 12.8726 76.2848 12.0485 76.2848 11.1126C76.2848 9.83052 76.8549 8.79269 77.9942 7.99905C79.1339 7.20541 80.6296 6.80859 82.4813 6.80859H89.7461V21.3688H85.2285V15.447H83.5497L80.0393 21.6435C78.8592 21.4604 77.3837 21.3688 75.6133 21.3688ZM83.336 13.524H85.2285V8.73164H83.336C82.5832 8.73164 81.9727 8.93498 81.5045 9.34213C81.0368 9.74928 80.8024 10.3391 80.8024 11.1126C80.8024 11.886 81.0368 12.4862 81.5045 12.9135C81.9727 13.3206 82.5832 13.524 83.336 13.524Z" fill="#8C909B"/>
<path d="M107.181 8.61345H105.41V21.3727H100.892V12.2153C100.892 11.1977 100.842 10.2721 100.74 9.43761C100.638 8.58292 100.546 7.99263 100.465 7.66719L100.312 7.17879L100.679 6.8125H111.82V9.16289L111.454 9.52918C110.579 8.91869 109.154 8.61345 107.181 8.61345Z" fill="#8C909B"/>
<path d="M136.354 19.8737C137.209 19.8737 137.901 19.6398 138.43 19.1716C138.959 18.7034 139.224 18.0624 139.224 17.2485C139.224 16.516 139 15.9463 138.552 15.5392C138.125 15.1118 137.525 14.8982 136.751 14.8982H134.462L134.218 14.6234V13.0362H136.263C137.952 13.0362 138.796 12.273 138.796 10.7468C138.796 9.95318 138.562 9.31216 138.094 8.82377C137.647 8.33538 137.047 8.09118 136.293 8.09118C135.602 8.09118 134.961 8.35557 134.37 8.88482C133.801 9.41407 133.393 9.94285 133.149 10.4721L132.783 11.2657H132.417C132.295 11.1845 132.132 11.0723 131.928 10.93C131.725 10.767 131.461 10.4214 131.135 9.89213C130.809 9.36288 130.646 8.80358 130.646 8.21328C130.768 8.09118 130.962 7.93856 131.226 7.75541C131.491 7.55207 132.122 7.29754 133.119 6.9923C134.116 6.66686 135.225 6.50391 136.446 6.50391C138.501 6.50391 140.119 6.88053 141.299 7.63331C142.5 8.3861 143.1 9.37321 143.1 10.5942C143.1 12.1406 142.195 13.2296 140.384 13.8603C141.523 14.1045 142.388 14.5624 142.978 15.2339C143.568 15.8853 143.863 16.6381 143.863 17.4927C143.863 18.7546 143.222 19.7717 141.94 20.5452C140.679 21.298 138.939 21.6746 136.721 21.6746C135.337 21.6746 134.116 21.522 133.058 21.2167C132.02 20.9115 131.318 20.6062 130.952 20.301L130.433 19.8431C130.433 19.2735 130.575 18.7442 130.86 18.2559C131.145 17.7473 131.44 17.381 131.745 17.157L132.173 16.8517H132.539C132.559 16.933 132.6 17.0452 132.661 17.1875C132.722 17.3096 132.865 17.5538 133.088 17.9201C133.312 18.2662 133.556 18.5714 133.821 18.8358C134.086 19.1002 134.442 19.3444 134.889 19.5684C135.357 19.7717 135.846 19.8737 136.354 19.8737Z" fill="#8C909B"/>
<path d="M159.647 17.9811L160.349 18.6832C160.309 18.7644 160.237 18.8767 160.136 19.019C160.034 19.1411 159.8 19.3749 159.433 19.721C159.088 20.0671 158.691 20.3724 158.243 20.6368C157.795 20.9012 157.185 21.1454 156.412 21.3694C155.639 21.5727 154.814 21.6746 153.939 21.6746C151.538 21.6746 149.615 20.9829 148.17 19.5989C146.746 18.1948 146.033 16.3431 146.033 14.0435C146.033 11.7236 146.766 9.89213 148.231 8.54905C149.696 7.18578 151.752 6.50391 154.397 6.50391C158.406 6.50391 160.41 8.09118 160.41 11.2657C160.41 11.6522 160.38 12.0392 160.319 12.4257C160.278 12.792 160.227 13.0667 160.166 13.2498L160.074 13.5551L159.708 13.9214H151.07C151.131 15.8139 151.528 17.1875 152.26 18.0422C153.013 18.8969 154.102 19.3242 155.526 19.3242C156.3 19.3242 157.022 19.2124 157.694 18.9884C158.386 18.7644 158.884 18.5409 159.189 18.3169L159.647 17.9811ZM154.275 7.96908C153.38 7.96908 152.647 8.34571 152.077 9.09849C151.528 9.85127 151.202 10.9605 151.1 12.4257L156.198 12.1204C156.3 11.6522 156.35 11.154 156.35 10.6247C156.35 8.8543 155.659 7.96908 154.275 7.96908Z" fill="#8C909B"/>
<path d="M176.7 9.16289L176.334 9.52918C175.459 8.91869 174.034 8.61345 172.061 8.61345H171.45V21.3727H166.933V8.61345H166.353C165.478 8.61345 164.684 8.69469 163.972 8.85764C163.259 8.99993 162.771 9.14269 162.507 9.28499L162.079 9.52918L161.713 9.16289V6.8125H176.7V9.16289Z" fill="#8C909B"/>
<path d="M185.641 6.50391C189.853 6.50391 191.96 7.94889 191.96 10.8384V18.2864C191.96 19.1411 192.306 19.5684 192.997 19.5684C193.14 19.5684 193.272 19.5482 193.394 19.5074C193.516 19.4665 193.598 19.436 193.638 19.4158L193.73 19.3547L194.432 20.0568C194.331 20.1789 194.188 20.3315 194.005 20.5147C193.822 20.6978 193.394 20.942 192.723 21.2473C192.051 21.5323 191.319 21.6746 190.525 21.6746C188.856 21.6746 187.859 21.0641 187.534 19.8431C186.129 21.0641 184.461 21.6746 182.528 21.6746C181.205 21.6746 180.198 21.3388 179.506 20.6673C178.814 19.9958 178.468 19.0392 178.468 17.798C178.468 16.5972 178.961 15.7528 179.78 15.0508C181.67 13.4302 183.065 13.2141 184.523 12.9056C185.054 12.7934 185.817 12.5125 186.429 12.2674C187.036 12.0401 187.438 11.4597 187.438 10.8116C187.442 10.3829 187.442 9.9837 187.442 9.9837C187.442 8.64062 186.791 7.96908 185.488 7.96908C184.776 7.96908 184.251 8.21046 183.81 8.57957C183.339 8.97217 182.822 9.53617 182.497 9.9837C182.217 10.3697 181.859 11.2657 181.859 11.2657H181.493C181.493 11.2657 181.162 11.084 181.033 10.9502C180.697 10.6012 180.062 9.75782 179.87 9.15954C179.743 8.76366 179.723 8.21328 179.723 8.21328C179.723 8.21328 179.974 7.96862 180.26 7.785C181.381 7.06321 183.565 6.50391 185.641 6.50391ZM183.138 17.218C183.138 18.5611 183.789 19.2326 185.092 19.2326C185.499 19.2326 185.896 19.1613 186.282 19.019C186.689 18.8767 186.984 18.7442 187.167 18.6221L187.442 18.4085V13.4283C187.442 13.4283 185.727 14.2168 185.092 14.6093C184.571 14.931 183.973 15.4373 183.626 15.7834C183.301 16.1088 183.138 16.5873 183.138 17.218Z" fill="#8C909B"/>
<path d="M65.7006 6.50391C69.913 6.50391 72.0192 7.94889 72.0192 10.8384V18.2864C72.0192 19.1411 72.3653 19.5684 73.057 19.5684C73.1998 19.5684 73.3317 19.5482 73.4538 19.5074C73.5759 19.4665 73.6576 19.436 73.698 19.4158L73.7896 19.3547L74.4917 20.0568C74.3902 20.1789 74.2475 20.3315 74.0643 20.5147C73.8812 20.6978 73.4538 20.942 72.7823 21.2473C72.1108 21.5323 71.3782 21.6746 70.5845 21.6746C68.916 21.6746 67.919 21.0641 67.5931 19.8431C66.189 21.0641 64.5205 21.6746 62.5871 21.6746C61.2647 21.6746 60.2574 21.3388 59.5652 20.6673C58.8734 19.9958 58.5273 19.0392 58.5273 17.798C58.5273 16.5972 59.0209 15.7528 59.8399 15.0508C61.7301 13.4302 63.1248 13.2141 64.5829 12.9056C65.114 12.7934 65.8762 12.5125 66.4881 12.2674C67.0953 12.0401 67.4973 11.4597 67.4973 10.8116C67.5015 10.3829 67.5015 9.9837 67.5015 9.9837C67.5015 8.64062 66.8507 7.96908 65.548 7.96908C64.836 7.96908 64.311 8.21046 63.8691 8.57957C63.3986 8.97217 62.8815 9.53617 62.5566 9.9837C62.2762 10.3697 61.9188 11.2657 61.9188 11.2657H61.5525C61.5525 11.2657 61.2219 11.084 61.0928 10.9502C60.7561 10.6012 60.1217 9.75782 59.9301 9.15954C59.8028 8.76366 59.7821 8.21328 59.7821 8.21328C59.7821 8.21328 60.0338 7.96862 60.3198 7.785C61.4408 7.06321 63.6249 6.50391 65.7006 6.50391ZM63.1976 17.218C63.1976 18.5611 63.8489 19.2326 65.1512 19.2326C65.5583 19.2326 65.9551 19.1613 66.3416 19.019C66.7488 18.8767 67.0437 18.7442 67.2268 18.6221L67.5015 18.4085V13.4283C67.5015 13.4283 65.787 14.2168 65.1512 14.6093C64.6304 14.931 64.0321 15.4373 63.686 15.7834C63.3605 16.1088 63.1976 16.5873 63.1976 17.218Z" fill="#8C909B"/>
<path d="M120.743 6.50391C124.955 6.50391 127.061 7.94889 127.061 10.8384V18.2864C127.061 19.1411 127.407 19.5684 128.099 19.5684C128.242 19.5684 128.374 19.5482 128.496 19.5074C128.618 19.4665 128.7 19.436 128.74 19.4158L128.832 19.3547L129.534 20.0568C129.432 20.1789 129.289 20.3315 129.106 20.5147C128.923 20.6978 128.496 20.942 127.824 21.2473C127.153 21.5323 126.42 21.6746 125.627 21.6746C123.958 21.6746 122.961 21.0641 122.635 19.8431C121.231 21.0641 119.562 21.6746 117.629 21.6746C116.307 21.6746 115.299 21.3388 114.607 20.6673C113.915 19.9958 113.569 19.0392 113.569 17.798C113.569 16.5972 114.063 15.7528 114.882 15.0508C116.772 13.4302 118.167 13.2141 119.625 12.9056C120.156 12.7934 120.918 12.5125 121.53 12.2674C122.137 12.0401 122.539 11.4597 122.539 10.8116C122.544 10.3829 122.544 9.9837 122.544 9.9837C122.544 8.64062 121.893 7.96908 120.59 7.96908C119.878 7.96908 119.353 8.21046 118.911 8.57957C118.441 8.97217 117.924 9.53617 117.599 9.9837C117.318 10.3697 116.961 11.2657 116.961 11.2657H116.595C116.595 11.2657 116.264 11.084 116.135 10.9502C115.798 10.6012 115.164 9.75782 114.972 9.15954C114.845 8.76366 114.824 8.21328 114.824 8.21328C114.824 8.21328 115.076 7.96862 115.362 7.785C116.483 7.06321 118.667 6.50391 120.743 6.50391ZM118.24 17.218C118.24 18.5611 118.891 19.2326 120.193 19.2326C120.6 19.2326 120.997 19.1613 121.384 19.019C121.791 18.8767 122.086 18.7442 122.269 18.6221L122.544 18.4085V13.4283C122.544 13.4283 120.829 14.2168 120.193 14.6093C119.672 14.931 119.074 15.4373 118.728 15.7834C118.403 16.1088 118.24 16.5873 118.24 17.218Z" fill="#8C909B"/>
</svg>
